<?xml version="1.0" encoding="UTF-8" standalone="no"?>
<!DOCTYPE svg PUBLIC "-//W3C//DTD SVG 1.1//EN" "http://www.w3.org/Graphics/SVG/1.1/DTD/svg11.dtd">
<svg width="100%" height="100%" viewBox="0 0 1056 335" version="1.1" xmlns="http://www.w3.org/2000/svg" xmlns:xlink="http://www.w3.org/1999/xlink" xml:space="preserve" xmlns:serif="http://www.serif.com/" style="fill-rule:evenodd;clip-rule:evenodd;stroke-linecap:round;stroke-linejoin:round;stroke-miterlimit:1.5;">
    <g transform="matrix(1,0,0,1,-72.3626,-173.776)">
        <g transform="matrix(1,0,0,1,2.27374e-13,-522.364)">
            <g>
                <g transform="matrix(0.994106,0,0,0.972137,2.69331,22.1487)">
                    <path d="M1131.61,805.302L1131.61,925.659C1131.61,932.76 1125.98,938.517 1119.04,938.517C1108.88,938.517 1100.63,946.953 1100.63,957.345C1100.63,964.446 1095,970.203 1088.05,970.203L113.642,970.203C106.697,970.203 101.068,964.446 101.068,957.345C101.068,946.953 92.818,938.517 82.657,938.517C75.712,938.517 70.082,932.76 70.082,925.659L70.082,805.302C70.082,798.2 75.712,792.443 82.657,792.443C92.818,792.443 101.068,784.007 101.068,773.616C101.068,766.515 106.697,760.758 113.642,760.758L1088.05,760.758C1095,760.758 1100.63,766.515 1100.63,773.616C1100.63,784.007 1108.88,792.443 1119.04,792.443C1125.98,792.443 1131.61,798.2 1131.61,805.302ZM1119.04,805.302C1101.94,805.302 1088.05,791.104 1088.05,773.616L113.642,773.616C113.642,791.104 99.758,805.302 82.657,805.302L82.657,925.659C99.758,925.659 113.642,939.857 113.642,957.345L1088.05,957.345C1088.05,939.857 1101.94,925.659 1119.04,925.659L1119.04,805.302Z"/>
                </g>
                <g transform="matrix(1,0,0,1,-7.32142,194.289)">
                    <path d="M92.184,727.667L92.184,610.784C109.218,610.784 123.047,596.954 123.047,579.921L468.241,579.921C456.86,597.599 448.756,617.583 444.791,639.012C442.978,648.808 442.031,658.907 442.031,669.225C442.031,679.309 442.936,689.183 444.669,698.771C448.588,720.452 456.741,740.668 468.241,758.53L123.047,758.53C123.047,741.496 109.218,727.667 92.184,727.667ZM455.268,698.771C453.417,689.206 452.447,679.328 452.447,669.225C452.447,658.887 453.462,648.785 455.398,639.012C459.688,617.354 468.5,597.315 480.806,579.921L733.837,579.921C746.143,597.315 754.955,617.354 759.245,639.012C761.18,648.785 762.195,658.887 762.195,669.225C762.195,679.328 761.226,689.206 759.375,698.771C755.135,720.684 746.27,740.957 733.837,758.53L480.806,758.53C468.373,740.957 459.507,720.684 455.268,698.771ZM746.402,758.53C757.901,740.668 766.055,720.452 769.974,698.771C771.707,689.183 772.612,679.309 772.612,669.225C772.612,658.907 771.665,648.808 769.852,639.012C765.887,617.583 757.783,597.599 746.402,579.921L1091.6,579.921C1091.6,596.954 1105.42,610.784 1122.46,610.784L1122.46,727.667C1105.42,727.667 1091.6,741.496 1091.6,758.53L746.402,758.53Z" style="fill:rgb(235,235,235);"/>
                </g>
                <g id="Red--White--and-Blue" serif:id="Red, White, and Blue" transform="matrix(1,0,0,1.00343,-7.32142,192.303)">
                    <g transform="matrix(1,0,0,0.907211,0,53.1421)">
                        <path d="M769.852,645.567C765.887,622.027 757.783,600.074 746.402,580.654L1091.6,580.654C1091.6,599.366 1105.42,614.558 1122.46,614.558L1122.46,645.567L769.852,645.567ZM92.184,645.567L92.184,614.558C109.218,614.558 123.047,599.366 123.047,580.654L468.241,580.654C456.86,600.074 448.756,622.027 444.791,645.567L92.184,645.567ZM733.837,580.654C746.143,599.762 754.955,621.776 759.245,645.567L455.398,645.567C459.688,621.776 468.5,599.762 480.806,580.654L733.837,580.654Z" style="fill:rgb(152,42,43);"/>
                    </g>
                    <g transform="matrix(1,0,0,0.907211,0,112.697)">
                        <path d="M759.245,579.921C761.18,590.656 762.195,601.754 762.195,613.11C762.195,624.208 761.226,635.059 759.375,645.567L455.268,645.567C453.417,635.059 452.447,624.208 452.447,613.11C452.447,601.754 453.462,590.656 455.398,579.921L759.245,579.921ZM92.184,645.567L92.184,579.921L444.791,579.921C442.978,590.682 442.031,601.776 442.031,613.11C442.031,624.188 442.936,635.035 444.669,645.567L92.184,645.567ZM769.974,645.567C771.707,635.035 772.612,624.188 772.612,613.11C772.612,601.776 771.665,590.682 769.852,579.921L1122.46,579.921L1122.46,645.567L769.974,645.567Z" style="fill:rgb(249,249,249);"/>
                    </g>
                    <g transform="matrix(1,0,0,0.907211,0,172.252)">
                        <path d="M759.375,579.921C755.135,603.993 746.27,626.262 733.837,645.567L480.806,645.567C468.373,626.262 459.507,603.993 455.268,579.921L759.375,579.921ZM468.241,645.567L123.047,645.567C123.047,626.855 109.218,611.663 92.184,611.663L92.184,579.921L444.669,579.921C448.588,603.738 456.741,625.945 468.241,645.567ZM746.402,645.567C757.901,625.945 766.055,603.738 769.974,579.921L1122.46,579.921L1122.46,611.663C1105.42,611.663 1091.6,626.855 1091.6,645.567L746.402,645.567Z" style="fill:rgb(152,42,43);"/>
                    </g>
                </g>
                <g transform="matrix(1,0,0,1,-7.32142,194.289)">
                    <circle cx="607.321" cy="669.225" r="154.874" style="fill:rgb(39,67,128);"/>
                </g>
                <g transform="matrix(1,0,0,1,-7.32142,194.289)">
                    <path d="M607.321,501.851C699.698,501.851 774.695,576.849 774.695,669.225C774.695,761.601 699.698,836.599 607.321,836.599C514.945,836.599 439.947,761.601 439.947,669.225C439.947,576.849 514.945,501.851 607.321,501.851ZM607.321,514.351C521.844,514.351 452.447,583.748 452.447,669.225C452.447,754.702 521.844,824.099 607.321,824.099C692.799,824.099 762.195,754.702 762.195,669.225C762.195,583.748 692.799,514.351 607.321,514.351Z"/>
                </g>
                <g id="Sight-Lines" serif:id="Sight Lines" transform="matrix(1,0,0,1,-7.32142,194.289)">
                    <g transform="matrix(-1.16797,-5.33294e-16,-1.47419e-15,-0.462271,1226.21,978.589)">
                        <path d="M452.447,669.225L607.321,669.225" style="fill:none;stroke:white;stroke-width:4.69px;"/>
                    </g>
                    <g transform="matrix(9.51241e-16,1.16797,-0.462271,2.06176e-15,916.685,50.3346)">
                        <path d="M452.447,669.225L607.321,669.225" style="fill:none;stroke:white;stroke-width:4.69px;"/>
                    </g>
                    <g transform="matrix(-0.562306,-7.79848e-17,1.0964e-16,-1,948.608,1335.43)">
                        <path d="M585.364,732.098L628.517,732.098" style="fill:none;stroke:white;stroke-width:5.14px;"/>
                    </g>
                    <g transform="matrix(-1.12416e-16,0.562306,-1,-1.70872e-16,1273.52,327.939)">
                        <path d="M585.364,732.098L628.517,732.098" style="fill:none;stroke:white;stroke-width:5.14px;"/>
                    </g>
                    <g transform="matrix(0.562306,1.46847e-16,-2.32104e-16,1,266.035,3.02197)">
                        <path d="M585.364,732.098L628.517,732.098" style="fill:none;stroke:white;stroke-width:5.14px;"/>
                    </g>
                    <g transform="matrix(1.81279e-16,-0.562306,1,2.93337e-16,-58.8818,1010.51)">
                        <path d="M585.364,732.098L628.517,732.098" style="fill:none;stroke:white;stroke-width:5.14px;"/>
                    </g>
                    <g transform="matrix(-0.394322,-6.76987e-17,9.51784e-17,-1,846.651,1349.06)">
                        <path d="M585.364,732.098L628.517,732.098" style="fill:none;stroke:white;stroke-width:5.48px;"/>
                    </g>
                    <g transform="matrix(-9.18439e-17,0.394322,-1,-1.56411e-16,1287.15,429.895)">
                        <path d="M585.364,732.098L628.517,732.098" style="fill:none;stroke:white;stroke-width:5.48px;"/>
                    </g>
                    <g transform="matrix(0.394322,1.15989e-16,-2.17643e-16,1,367.992,-10.6074)">
                        <path d="M585.364,732.098L628.517,732.098" style="fill:none;stroke:white;stroke-width:5.48px;"/>
                    </g>
                    <g transform="matrix(1.40134e-16,-0.394322,1,2.78875e-16,-72.5112,908.555)">
                        <path d="M585.364,732.098L628.517,732.098" style="fill:none;stroke:white;stroke-width:5.48px;"/>
                    </g>
                    <g transform="matrix(-0.394322,-6.76987e-17,9.51784e-17,-1,846.651,1376.32)">
                        <path d="M585.364,732.098L628.517,732.098" style="fill:none;stroke:white;stroke-width:5.48px;"/>
                    </g>
                    <g transform="matrix(-9.18439e-17,0.394322,-1,-1.56411e-16,1314.41,429.895)">
                        <path d="M585.364,732.098L628.517,732.098" style="fill:none;stroke:white;stroke-width:5.48px;"/>
                    </g>
                    <g transform="matrix(0.394322,1.15989e-16,-2.17643e-16,1,367.992,-37.8662)">
                        <path d="M585.364,732.098L628.517,732.098" style="fill:none;stroke:white;stroke-width:5.48px;"/>
                    </g>
                    <g transform="matrix(1.40134e-16,-0.394322,1,2.78875e-16,-99.7699,908.555)">
                        <path d="M585.364,732.098L628.517,732.098" style="fill:none;stroke:white;stroke-width:5.48px;"/>
                    </g>
                    <g transform="matrix(-0.562306,-7.79848e-17,1.0964e-16,-1,948.608,1362.69)">
                        <path d="M585.364,732.098L628.517,732.098" style="fill:none;stroke:white;stroke-width:5.14px;"/>
                    </g>
                    <g transform="matrix(-1.12416e-16,0.562306,-1,-1.70872e-16,1300.78,327.939)">
                        <path d="M585.364,732.098L628.517,732.098" style="fill:none;stroke:white;stroke-width:5.14px;"/>
                    </g>
                    <g transform="matrix(0.562306,1.46847e-16,-2.32104e-16,1,266.035,-24.2368)">
                        <path d="M585.364,732.098L628.517,732.098" style="fill:none;stroke:white;stroke-width:5.14px;"/>
                    </g>
                    <g transform="matrix(1.81279e-16,-0.562306,1,2.93337e-16,-86.1406,1010.51)">
                        <path d="M585.364,732.098L628.517,732.098" style="fill:none;stroke:white;stroke-width:5.14px;"/>
                    </g>
                </g>
                <g id="Stars" transform="matrix(1,0,0,1,-7.32142,194.289)">
                    <g transform="matrix(0.0736664,-0.0386593,0.0386593,0.0736664,521.52,551.561)">
                        <path d="M512,197.816L325.961,185.585L255.898,9.569L185.835,185.585L0,197.816L142.534,318.842L95.762,502.431L255.898,401.21L416.035,502.431L369.263,318.842L512,197.816Z" style="fill:white;fill-rule:nonzero;"/>
                    </g>
                    <g transform="matrix(0.0472652,-0.0684637,0.0684637,0.0472652,476.67,604.908)">
                        <path d="M512,197.816L325.961,185.585L255.898,9.569L185.835,185.585L0,197.816L142.534,318.842L95.762,502.431L255.898,401.21L416.035,502.431L369.263,318.842L512,197.816Z" style="fill:white;fill-rule:nonzero;"/>
                    </g>
                    <g transform="matrix(0.0100379,-0.0825864,0.0825864,0.0100379,461.745,672.986)">
                        <path d="M512,197.816L325.961,185.585L255.898,9.569L185.835,185.585L0,197.816L142.534,318.842L95.762,502.431L255.898,401.21L416.035,502.431L369.263,318.842L512,197.816Z" style="fill:white;fill-rule:nonzero;"/>
                    </g>
                    <g transform="matrix(-0.0294885,-0.0777927,0.0777927,-0.0294885,480.165,740.202)">
                        <path d="M512,197.816L325.961,185.585L255.898,9.569L185.835,185.585L0,197.816L142.534,318.842L95.762,502.431L255.898,401.21L416.035,502.431L369.263,318.842L512,197.816Z" style="fill:white;fill-rule:nonzero;"/>
                    </g>
                    <g transform="matrix(-0.0622606,-0.0551805,0.0551805,-0.0622606,527.71,791.162)">
                        <path d="M512,197.816L325.961,185.585L255.898,9.569L185.835,185.585L0,197.816L142.534,318.842L95.762,502.431L255.898,401.21L416.035,502.431L369.263,318.842L512,197.816Z" style="fill:white;fill-rule:nonzero;"/>
                    </g>
                    <g transform="matrix(-0.0807719,-0.0199292,0.0199292,-0.0807719,593.49,814.192)">
                        <path d="M512,197.816L325.961,185.585L255.898,9.569L185.835,185.585L0,197.816L142.534,318.842L95.762,502.431L255.898,401.21L416.035,502.431L369.263,318.842L512,197.816Z" style="fill:white;fill-rule:nonzero;"/>
                    </g>
                    <g transform="matrix(-0.0807823,0.0198869,-0.0198869,-0.0807823,662.438,804.017)">
                        <path d="M512,197.816L325.961,185.585L255.898,9.569L185.835,185.585L0,197.816L142.534,318.842L95.762,502.431L255.898,401.21L416.035,502.431L369.263,318.842L512,197.816Z" style="fill:white;fill-rule:nonzero;"/>
                    </g>
                    <g transform="matrix(-0.0622895,0.0551479,-0.0551479,-0.0622895,718.762,762.968)">
                        <path d="M512,197.816L325.961,185.585L255.898,9.569L185.835,185.585L0,197.816L142.534,318.842L95.762,502.431L255.898,401.21L416.035,502.431L369.263,318.842L512,197.816Z" style="fill:white;fill-rule:nonzero;"/>
                    </g>
                    <g transform="matrix(-0.0295293,0.0777772,-0.0777772,-0.0295293,749.56,700.447)">
                        <path d="M512,197.816L325.961,185.585L255.898,9.569L185.835,185.585L0,197.816L142.534,318.842L95.762,502.431L255.898,401.21L416.035,502.431L369.263,318.842L512,197.816Z" style="fill:white;fill-rule:nonzero;"/>
                    </g>
                    <g transform="matrix(0.00999469,0.0825917,-0.0825917,0.00999469,747.778,630.775)">
                        <path d="M512,197.816L325.961,185.585L255.898,9.569L185.835,185.585L0,197.816L142.534,318.842L95.762,502.431L255.898,401.21L416.035,502.431L369.263,318.842L512,197.816Z" style="fill:white;fill-rule:nonzero;"/>
                    </g>
                    <g transform="matrix(0.0472294,0.0684884,-0.0684884,0.0472294,713.825,569.91)">
                        <path d="M512,197.816L325.961,185.585L255.898,9.569L185.835,185.585L0,197.816L142.534,318.842L95.762,502.431L255.898,401.21L416.035,502.431L369.263,318.842L512,197.816Z" style="fill:white;fill-rule:nonzero;"/>
                    </g>
                    <g transform="matrix(0.0736461,0.0386979,-0.0386979,0.0736461,655.477,531.793)">
                        <path d="M512,197.816L325.961,185.585L255.898,9.569L185.835,185.585L0,197.816L142.534,318.842L95.762,502.431L255.898,401.21L416.035,502.431L369.263,318.842L512,197.816Z" style="fill:white;fill-rule:nonzero;"/>
                    </g>
                    <g transform="matrix(0.0831942,4.35604e-05,-4.35604e-05,0.0831942,586.099,525.155)">
                        <path d="M512,197.816L325.961,185.585L255.898,9.569L185.835,185.585L0,197.816L142.534,318.842L95.762,502.431L255.898,401.21L416.035,502.431L369.263,318.842L512,197.816Z" style="fill:white;fill-rule:nonzero;"/>
                    </g>
                </g>
                <g id="GUN" transform="matrix(2.02586,0,0,2.02586,-174.973,-82.3021)">
                    <g transform="matrix(83.3333,0,0,83.3333,156.534,496.404)">
                        <path d="M0.426,-0.487L0.292,-0.487C0.285,-0.487 0.281,-0.493 0.284,-0.499L0.294,-0.529C0.296,-0.535 0.298,-0.546 0.298,-0.552C0.298,-0.558 0.293,-0.563 0.286,-0.563L0.154,-0.563C0.147,-0.563 0.141,-0.557 0.141,-0.55L0.142,-0.159C0.142,-0.152 0.147,-0.147 0.154,-0.147L0.286,-0.147C0.293,-0.147 0.298,-0.152 0.298,-0.159L0.298,-0.232C0.298,-0.239 0.293,-0.245 0.286,-0.245L0.241,-0.245C0.234,-0.245 0.228,-0.25 0.228,-0.257L0.228,-0.374C0.228,-0.381 0.233,-0.386 0.24,-0.386L0.425,-0.386C0.432,-0.386 0.438,-0.381 0.438,-0.374L0.438,-0.087C0.438,-0.08 0.434,-0.071 0.429,-0.066L0.377,-0.014C0.372,-0.009 0.362,-0.005 0.355,-0.005L0.083,-0.005C0.076,-0.005 0.067,-0.009 0.062,-0.014L0.009,-0.066C0.004,-0.071 0,-0.08 0,-0.087L0,-0.62C0,-0.627 0.004,-0.637 0.009,-0.641L0.062,-0.692C0.067,-0.697 0.076,-0.701 0.083,-0.701L0.355,-0.701C0.362,-0.701 0.372,-0.697 0.377,-0.692L0.429,-0.642C0.434,-0.637 0.438,-0.627 0.438,-0.62L0.438,-0.5C0.438,-0.493 0.433,-0.487 0.426,-0.487Z" style="fill:white;fill-rule:nonzero;stroke:black;stroke-width:0.04px;stroke-linecap:butt;stroke-miterlimit:2;"/>
                    </g>
                    <g transform="matrix(83.3333,0,0,83.3333,199.284,496.404)">
                        <path d="M0.464,-0.66L0.478,-0.692C0.481,-0.698 0.478,-0.703 0.471,-0.703L0.307,-0.703C0.3,-0.703 0.297,-0.698 0.3,-0.692L0.315,-0.66C0.318,-0.654 0.32,-0.643 0.32,-0.636L0.319,-0.153C0.319,-0.146 0.314,-0.141 0.307,-0.141L0.172,-0.141C0.165,-0.141 0.16,-0.146 0.16,-0.153L0.159,-0.636C0.159,-0.643 0.162,-0.654 0.165,-0.66L0.18,-0.692C0.182,-0.698 0.179,-0.703 0.172,-0.703L0.008,-0.703C0.001,-0.703 -0.002,-0.698 0.001,-0.692L0.016,-0.66C0.019,-0.654 0.021,-0.643 0.021,-0.636L0.021,-0.081C0.021,-0.074 0.025,-0.065 0.03,-0.06L0.083,-0.008C0.088,-0.003 0.097,0.001 0.104,0.001L0.376,0.001C0.383,0.001 0.393,-0.003 0.398,-0.008L0.45,-0.06C0.455,-0.065 0.459,-0.074 0.459,-0.081L0.458,-0.636C0.458,-0.643 0.461,-0.654 0.464,-0.66Z" style="fill:white;fill-rule:nonzero;stroke:black;stroke-width:0.04px;stroke-linecap:butt;stroke-miterlimit:2;"/>
                    </g>
                    <g transform="matrix(83.3333,0,0,83.3333,245.451,496.404)">
                        <path d="M0.458,-0.068L0.458,-0.632C0.458,-0.639 0.461,-0.649 0.464,-0.656L0.478,-0.687C0.481,-0.693 0.478,-0.698 0.471,-0.698L0.307,-0.698C0.3,-0.698 0.297,-0.693 0.3,-0.687L0.315,-0.656C0.318,-0.649 0.32,-0.639 0.32,-0.632L0.32,-0.337C0.32,-0.33 0.318,-0.329 0.315,-0.336L0.163,-0.688C0.161,-0.695 0.153,-0.7 0.146,-0.7L0.008,-0.701C0.001,-0.701 -0.002,-0.696 0.001,-0.69L0.016,-0.659C0.019,-0.652 0.021,-0.642 0.021,-0.635L0.021,-0.071C0.021,-0.064 0.019,-0.053 0.016,-0.047L0.001,-0.017C-0.002,-0.011 0.001,-0.005 0.008,-0.005L0.172,-0.005C0.179,-0.005 0.182,-0.011 0.179,-0.017L0.165,-0.047C0.162,-0.053 0.159,-0.064 0.159,-0.071L0.159,-0.364C0.159,-0.371 0.162,-0.371 0.164,-0.365L0.315,-0.014C0.318,-0.008 0.326,-0.002 0.333,-0.002L0.471,-0.002C0.478,-0.003 0.481,-0.008 0.478,-0.014L0.464,-0.044C0.461,-0.05 0.458,-0.061 0.458,-0.068Z" style="fill:white;fill-rule:nonzero;stroke:black;stroke-width:0.04px;stroke-linecap:butt;stroke-miterlimit:2;"/>
                    </g>
                </g>
                <g id="BOX" transform="matrix(2.02586,0,0,2.02586,476.845,-82.7839)">
                    <g transform="matrix(83.3333,0,0,83.3333,156.534,496.404)">
                        <path d="M0.459,-0.412L0.459,-0.618C0.459,-0.625 0.455,-0.635 0.45,-0.64L0.398,-0.692C0.393,-0.696 0.383,-0.7 0.376,-0.7L0.008,-0.7C0.001,-0.7 -0.002,-0.695 0.001,-0.689L0.016,-0.658C0.019,-0.651 0.021,-0.641 0.021,-0.634L0.021,-0.07C0.021,-0.063 0.019,-0.052 0.016,-0.046L0.001,-0.016C-0.002,-0.01 0.001,-0.004 0.008,-0.004L0.376,-0.004C0.383,-0.004 0.392,-0.008 0.397,-0.013L0.449,-0.065C0.454,-0.07 0.458,-0.08 0.458,-0.087L0.458,-0.305C0.458,-0.312 0.454,-0.321 0.449,-0.326L0.427,-0.349C0.422,-0.354 0.422,-0.362 0.427,-0.367L0.45,-0.39C0.455,-0.395 0.459,-0.405 0.459,-0.412ZM0.172,-0.559L0.308,-0.559C0.315,-0.559 0.32,-0.553 0.32,-0.546L0.32,-0.437C0.32,-0.43 0.314,-0.424 0.307,-0.424L0.172,-0.424C0.165,-0.424 0.16,-0.43 0.16,-0.437L0.16,-0.546C0.16,-0.553 0.165,-0.559 0.172,-0.559ZM0.307,-0.146L0.172,-0.146C0.165,-0.146 0.16,-0.152 0.16,-0.159L0.16,-0.273C0.16,-0.28 0.165,-0.286 0.172,-0.286L0.307,-0.286C0.314,-0.286 0.32,-0.28 0.32,-0.273L0.32,-0.159C0.32,-0.152 0.314,-0.146 0.307,-0.146Z" style="fill:white;fill-rule:nonzero;stroke:black;stroke-width:0.04px;stroke-linecap:butt;stroke-miterlimit:2;"/>
                    </g>
                    <g transform="matrix(83.3333,0,0,83.3333,201.034,496.404)">
                        <path d="M0.429,-0.645L0.377,-0.696C0.372,-0.701 0.362,-0.705 0.355,-0.705L0.083,-0.705C0.076,-0.705 0.067,-0.701 0.062,-0.696L0.009,-0.645C0.004,-0.64 0,-0.631 0,-0.624L0,-0.091C0,-0.084 0.004,-0.074 0.009,-0.069L0.062,-0.018C0.067,-0.013 0.076,-0.009 0.083,-0.009L0.355,-0.009C0.362,-0.009 0.372,-0.013 0.377,-0.018L0.429,-0.069C0.434,-0.074 0.438,-0.084 0.438,-0.091L0.438,-0.624C0.438,-0.631 0.434,-0.64 0.429,-0.645ZM0.286,-0.15L0.154,-0.15C0.147,-0.15 0.142,-0.156 0.142,-0.163L0.141,-0.554C0.141,-0.561 0.147,-0.567 0.154,-0.567L0.286,-0.567C0.293,-0.567 0.298,-0.561 0.298,-0.554L0.298,-0.163C0.298,-0.156 0.293,-0.15 0.286,-0.15Z" style="fill:white;fill-rule:nonzero;stroke:black;stroke-width:0.04px;stroke-linecap:butt;stroke-miterlimit:2;"/>
                    </g>
                    <g transform="matrix(83.3333,0,0,83.3333,243.784,496.404)">
                        <path d="M0.531,-0.011L0.496,-0.046C0.491,-0.051 0.485,-0.06 0.482,-0.067L0.341,-0.357C0.338,-0.364 0.338,-0.374 0.341,-0.38L0.463,-0.633C0.466,-0.639 0.473,-0.648 0.477,-0.653L0.511,-0.691C0.516,-0.696 0.514,-0.7 0.507,-0.7L0.317,-0.7C0.31,-0.7 0.307,-0.695 0.31,-0.689L0.325,-0.656C0.328,-0.649 0.328,-0.639 0.325,-0.633L0.272,-0.523C0.269,-0.516 0.264,-0.516 0.261,-0.523L0.208,-0.632C0.205,-0.638 0.205,-0.648 0.208,-0.655L0.224,-0.688C0.227,-0.695 0.223,-0.7 0.216,-0.7L0.026,-0.699C0.019,-0.699 0.017,-0.695 0.022,-0.69L0.056,-0.653C0.061,-0.647 0.067,-0.638 0.07,-0.632L0.192,-0.38C0.195,-0.374 0.195,-0.364 0.192,-0.357L0.051,-0.067C0.048,-0.06 0.042,-0.051 0.037,-0.046L0.003,-0.011C-0.002,-0.006 0,-0.002 0.007,-0.002L0.197,-0.002C0.204,-0.002 0.207,-0.007 0.204,-0.014L0.19,-0.044C0.187,-0.05 0.187,-0.06 0.19,-0.067L0.261,-0.215C0.264,-0.221 0.269,-0.221 0.272,-0.215L0.344,-0.067C0.347,-0.06 0.347,-0.05 0.344,-0.044L0.329,-0.014C0.326,-0.007 0.329,-0.002 0.336,-0.002L0.527,-0.002C0.534,-0.002 0.535,-0.006 0.531,-0.011Z" style="fill:white;fill-rule:nonzero;stroke:black;stroke-width:0.04px;stroke-linecap:butt;stroke-miterlimit:2;"/>
                    </g>
                </g>
            </g>
        </g>
    </g>
</svg>
